<mxfile host="app.diagrams.net" modified="2025-04-16T00:00:00.000Z" agent="ChatGPT" version="16.0.4">
  <diagram id="diagram1" name="IA Code Reviewer">
    <mxGraphModel dx="1102" dy="605" grid="1" gridSize="10" guides="1" tooltips="1" connect="1" arrows="1">
      <root>
        <mxCell id="0"/>
        <mxCell id="1" parent="0"/>
        <!-- Bitbucket Cloud -->
        <mxCell id="2" value="Bitbucket Cloud&#xa;(Pull Requests Events)" style="rounded=1;whiteSpace=wrap;html=1;fillColor=#DAE8FC;strokeColor=#6C8EBF;" vertex="1" parent="1">
          <mxGeometry x="260" y="20" width="180" height="60" as="geometry"/>
        </mxCell>
        <!-- Webhook Listener -->
        <mxCell id="3" value="Webhook Listener&#xa;(Reçoit les événements PR)" style="rounded=1;whiteSpace=wrap;html=1;fillColor=#E1D5E7;strokeColor=#9673A6;" vertex="1" parent="1">
          <mxGeometry x="260" y="100" width="180" height="60" as="geometry"/>
        </mxCell>
        <!-- Agent 1 : Pull Request Scanner -->
        <mxCell id="4" value="Agent 1 :&#xa;Pull Request Scanner&#xa;(Récupère diff &amp; métadonnées)" style="rounded=1;whiteSpace=wrap;html=1;fillColor=#F8CECC;strokeColor=#B85450;" vertex="1" parent="1">
          <mxGeometry x="260" y="180" width="180" height="80" as="geometry"/>
        </mxCell>
        <!-- Agent 2 : Diff Analyzer -->
        <mxCell id="5" value="Agent 2 :&#xa;Diff Analyzer&#xa;(Analyse des changements)" style="rounded=1;whiteSpace=wrap;html=1;fillColor=#FFF2CC;strokeColor=#D6B656;" vertex="1" parent="1">
          <mxGeometry x="260" y="280" width="180" height="80" as="geometry"/>
        </mxCell>
        <!-- Agent 3 : LLM Reviewer -->
        <mxCell id="6" value="Agent 3 :&#xa;LLM Reviewer&#xa;(Appelle LLaMA3)" style="rounded=1;whiteSpace=wrap;html=1;fillColor=#D5E8D4;strokeColor=#82B366;" vertex="1" parent="1">
          <mxGeometry x="260" y="380" width="180" height="80" as="geometry"/>
        </mxCell>
        <!-- Agent 4 : Comment Poster -->
        <mxCell id="7" value="Agent 4 :&#xa;Comment Poster&#xa;(Utilise API Bitbucket)" style="rounded=1;whiteSpace=wrap;html=1;fillColor=#CCE5FF;strokeColor=#3C78D8;" vertex="1" parent="1">
          <mxGeometry x="260" y="480" width="180" height="80" as="geometry"/>
        </mxCell>
        <!-- Stockage Local -->
        <mxCell id="8" value="Stockage Local&#xa;(SQLite / JSON Files)" style="rounded=1;whiteSpace=wrap;html=1;fillColor=#F5F5F5;strokeColor=#999999;" vertex="1" parent="1">
          <mxGeometry x="480" y="380" width="180" height="60" as="geometry"/>
        </mxCell>
        <!-- LLM Engine Local -->
        <mxCell id="9" value="LLM Engine Local&#xa;(Ollama / llama.cpp)" style="rounded=1;whiteSpace=wrap;html=1;fillColor=#FCE5CD;strokeColor=#D79B00;" vertex="1" parent="1">
          <mxGeometry x="40" y="380" width="180" height="60" as="geometry"/>
        </mxCell>
        <!-- Edges -->
        <mxCell id="10" edge="1" source="2" target="3" style="endArrow=block;html=1;strokeColor=#000000;" parent="1">
          <mxGeometry relative="1" as="geometry"/>
        </mxCell>
        <mxCell id="11" edge="1" source="3" target="4" style="endArrow=block;html=1;strokeColor=#000000;" parent="1">
          <mxGeometry relative="1" as="geometry"/>
        </mxCell>
        <mxCell id="12" edge="1" source="4" target="5" style="endArrow=block;html=1;strokeColor=#000000;" parent="1">
          <mxGeometry relative="1" as="geometry"/>
        </mxCell>
        <mxCell id="13" edge="1" source="5" target="6" style="endArrow=block;html=1;strokeColor=#000000;" parent="1">
          <mxGeometry relative="1" as="geometry"/>
        </mxCell>
        <mxCell id="14" edge="1" source="6" target="7" style="endArrow=block;html=1;strokeColor=#000000;" parent="1">
          <mxGeometry relative="1" as="geometry"/>
        </mxCell>
        <mxCell id="15" edge="1" source="7" target="2" style="endArrow=block;html=1;strokeColor=#000000;" parent="1">
          <mxGeometry relative="1" as="geometry"/>
        </mxCell>
        <!-- LLM Engine connection (dashed) -->
        <mxCell id="16" edge="1" source="6" target="9" style="endArrow=block;html=1;strokeColor=#000000;dashed=1;" parent="1">
          <mxGeometry relative="1" as="geometry"/>
        </mxCell>
        <!-- Stockage connections (dashed) -->
        <mxCell id="17" edge="1" source="4" target="8" style="endArrow=block;html=1;strokeColor=#000000;dashed=1;" parent="1">
          <mxGeometry relative="1" as="geometry"/>
        </mxCell>
        <mxCell id="18" edge="1" source="5" target="8" style="endArrow=block;html=1;strokeColor=#000000;dashed=1;" parent="1">
          <mxGeometry relative="1" as="geometry"/>
        </mxCell>
        <mxCell id="19" edge="1" source="6" target="8" style="endArrow=block;html=1;strokeColor=#000000;dashed=1;" parent="1">
          <mxGeometry relative="1" as="geometry"/>
        </mxCell>
        <mxCell id="20" edge="1" source="7" target="8" style="endArrow=block;html=1;strokeColor=#000000;dashed=1;" parent="1">
          <mxGeometry relative="1" as="geometry"/>
        </mxCell>
      </root>
    </mxGraphModel>
  </diagram>
</mxfile>
